<svg width="285" height="90" viewBox="0 0 285 90" fill="none" xmlns="http://www.w3.org/2000/svg">
<g id="logo-v3">
<g id="logo">
<g id="HERBALIFE">
<path id="Vector" d="M236.757 36.3083V15.8977H250.7V19.339H240.97V24.2933H249.306V27.7347H240.97V32.867H250.7V36.3083H236.757Z" fill="#006429"/>
<path id="Vector_2" d="M219.867 36.3083V15.8977H233.217V19.339H224.079V24.857H232.119V28.2983H224.079V36.3083H219.867Z" fill="#006429"/>
<path id="Vector_3" d="M210.799 36.3083V15.8977H215.011V36.3083H210.799Z" fill="#006429"/>
<path id="Vector_4" d="M194.835 36.3083V15.8977H199.048V32.7483H207.592V36.3083H194.835Z" fill="#006429"/>
<path id="Vector_5" d="M172.51 36.3083L179.422 15.8977H185.059L191.971 36.3083H187.669L186.156 31.799H178.176L176.722 36.3083H172.51ZM179.244 28.3873H185.059L182.24 19.7247H182.062L179.244 28.3873Z" fill="#006429"/>
<path id="Vector_6" d="M154.478 36.3083V15.8977H164.446C165.771 15.8977 166.849 16.0955 167.68 16.491C168.53 16.8668 169.153 17.4403 169.549 18.2117C169.964 18.9632 170.172 19.9027 170.172 21.03C170.172 21.9596 170.043 22.7507 169.786 23.4033C169.529 24.056 169.143 24.5801 168.629 24.9757C168.115 25.3712 167.452 25.658 166.642 25.836V25.9547C167.551 26.1327 168.273 26.4293 168.807 26.8447C169.361 27.2402 169.757 27.7742 169.994 28.4467C170.231 29.0993 170.35 29.9201 170.35 30.909C170.35 31.7199 170.251 32.4616 170.053 33.134C169.855 33.7867 169.529 34.3503 169.074 34.825C168.639 35.2997 168.046 35.6656 167.294 35.9227C166.543 36.1798 165.603 36.3083 164.476 36.3083H154.478ZM158.691 32.9263H163.082C163.873 32.9263 164.496 32.8571 164.951 32.7187C165.405 32.5605 165.712 32.2935 165.87 31.9177C166.048 31.5221 166.137 30.9782 166.137 30.286C166.137 29.6136 166.048 29.0895 165.87 28.7137C165.692 28.3181 165.376 28.0412 164.921 27.883C164.486 27.7248 163.873 27.6457 163.082 27.6457H158.691V32.9263ZM158.691 24.323H162.933C163.685 24.323 164.278 24.2439 164.713 24.0857C165.168 23.9275 165.485 23.6703 165.663 23.3143C165.86 22.9386 165.959 22.454 165.959 21.8607C165.959 21.1685 165.87 20.6443 165.692 20.2883C165.534 19.9126 165.237 19.6555 164.802 19.517C164.387 19.3786 163.764 19.3093 162.933 19.3093H158.691V24.323Z" fill="#006429"/>
<path id="Vector_7" d="M134.43 36.3083V15.8977H144.19C145.516 15.8977 146.574 16.046 147.365 16.3427C148.176 16.6393 148.789 17.0745 149.204 17.648C149.619 18.2018 149.896 18.8841 150.035 19.695C150.193 20.4861 150.272 21.3761 150.272 22.365C150.272 23.0572 150.213 23.7989 150.094 24.59C149.975 25.3811 149.708 26.1129 149.293 26.7853C148.897 27.4578 148.265 27.9522 147.394 28.2687L150.658 36.3083H146.208L143.122 28.1203L144.161 28.684C144.022 28.7433 143.854 28.7829 143.656 28.8027C143.478 28.8225 143.271 28.8323 143.033 28.8323H138.643V36.3083H134.43ZM138.643 25.4207H142.499C143.33 25.4207 143.983 25.3712 144.457 25.2723C144.932 25.1735 145.288 25.0152 145.525 24.7977C145.763 24.5603 145.911 24.2538 145.97 23.878C146.03 23.4825 146.059 22.9781 146.059 22.365C146.059 21.7519 146.03 21.2476 145.97 20.852C145.911 20.4565 145.773 20.1499 145.555 19.9323C145.337 19.7148 144.982 19.5566 144.487 19.4577C144.012 19.3588 143.36 19.3093 142.529 19.3093H138.643V25.4207Z" fill="#006429"/>
<path id="Vector_8" d="M116.41 36.3083V15.8977H130.353V19.339H120.623V24.2933H128.959V27.7347H120.623V32.867H130.353V36.3083H116.41Z" fill="#006429"/>
<path id="Vector_9" d="M95 36.3083V15.8977H99.2127V24.234H107.341V15.8977H111.554V36.3083H107.341V27.8533H99.2127V36.3083H95Z" fill="#006429"/>
</g>
<g id="NUTRITION">
<path id="Vector_10" d="M203.677 61.0083V44.6798H207.166L213.598 54.7427H213.717V44.6798H216.944V61.0083H213.74L207.024 50.3995H206.905V61.0083H203.677Z" fill="#006429"/>
<path id="Vector_11" d="M193.329 61.1982C192 61.1982 190.9 61.1191 190.03 60.9609C189.176 60.8026 188.503 60.5416 188.013 60.1777C187.522 59.7979 187.166 59.2916 186.945 58.6587C186.723 58.01 186.581 57.211 186.517 56.2617C186.454 55.3123 186.422 54.1731 186.422 52.8441C186.422 51.515 186.454 50.3758 186.517 49.4265C186.581 48.4771 186.723 47.686 186.945 47.0531C187.166 46.4044 187.522 45.8981 188.013 45.5342C188.503 45.1545 189.176 44.8855 190.03 44.7273C190.9 44.569 192 44.4899 193.329 44.4899C194.658 44.4899 195.75 44.569 196.604 44.7273C197.474 44.8855 198.155 45.1545 198.645 45.5342C199.136 45.8981 199.492 46.4044 199.713 47.0531C199.95 47.686 200.101 48.4771 200.164 49.4265C200.227 50.3758 200.259 51.515 200.259 52.8441C200.259 54.1731 200.227 55.3123 200.164 56.2617C200.101 57.211 199.95 58.01 199.713 58.6587C199.492 59.2916 199.136 59.7979 198.645 60.1777C198.155 60.5416 197.474 60.8026 196.604 60.9609C195.75 61.1191 194.658 61.1982 193.329 61.1982ZM193.329 58.4451C194.025 58.4451 194.587 58.4214 195.014 58.3739C195.457 58.3265 195.805 58.2157 196.058 58.0417C196.311 57.8676 196.493 57.5828 196.604 57.1873C196.731 56.7917 196.81 56.2458 196.841 55.5497C196.873 54.8535 196.889 53.9516 196.889 52.8441C196.889 51.7365 196.873 50.8346 196.841 50.1385C196.81 49.4423 196.731 48.8964 196.604 48.5009C196.493 48.1053 196.311 47.8205 196.058 47.6465C195.805 47.4724 195.457 47.3617 195.014 47.3142C194.587 47.2667 194.025 47.243 193.329 47.243C192.649 47.243 192.087 47.2667 191.644 47.3142C191.217 47.3617 190.876 47.4724 190.623 47.6465C190.37 47.8205 190.18 48.1053 190.054 48.5009C189.943 48.8964 189.872 49.4423 189.84 50.1385C189.808 50.8346 189.793 51.7365 189.793 52.8441C189.793 53.9516 189.808 54.8535 189.84 55.5497C189.872 56.2458 189.943 56.7917 190.054 57.1873C190.18 57.5828 190.37 57.8676 190.623 58.0417C190.876 58.2157 191.217 58.3265 191.644 58.3739C192.087 58.4214 192.649 58.4451 193.329 58.4451Z" fill="#006429"/>
<path id="Vector_12" d="M179.643 61.0083V44.6798H183.013V61.0083H179.643Z" fill="#006429"/>
<path id="Vector_13" d="M169.104 61.0083V47.5278H164.381V44.6798H177.197V47.5278H172.475V61.0083H169.104Z" fill="#006429"/>
<path id="Vector_14" d="M158.575 61.0083V44.6798H161.945V61.0083H158.575Z" fill="#006429"/>
<path id="Vector_15" d="M142.536 61.0083V44.6798H150.344C151.405 44.6798 152.251 44.7985 152.884 45.0358C153.533 45.2731 154.023 45.6212 154.355 46.0801C154.688 46.5231 154.909 47.069 155.02 47.7177C155.147 48.3506 155.21 49.0626 155.21 49.8537C155.21 50.4075 155.162 51.0008 155.067 51.6337C154.972 52.2666 154.759 52.852 154.427 53.3899C154.11 53.9279 153.604 54.3235 152.908 54.5766L155.518 61.0083H151.958L149.49 54.4579L150.321 54.9089C150.21 54.9563 150.075 54.988 149.917 55.0038C149.775 55.0196 149.609 55.0275 149.419 55.0275H145.906V61.0083H142.536ZM145.906 52.2982H148.992C149.656 52.2982 150.178 52.2587 150.558 52.1795C150.938 52.1004 151.223 51.9739 151.412 51.7998C151.602 51.6099 151.721 51.3647 151.768 51.0641C151.816 50.7476 151.84 50.3442 151.84 49.8537C151.84 49.3632 151.816 48.9597 151.768 48.6433C151.721 48.3268 151.61 48.0816 151.436 47.9075C151.262 47.7335 150.977 47.6069 150.582 47.5278C150.202 47.4487 149.68 47.4091 149.015 47.4091H145.906V52.2982Z" fill="#006429"/>
<path id="Vector_16" d="M131.998 61.0083V47.5278H127.275V44.6798H140.091V47.5278H135.368V61.0083H131.998Z" fill="#006429"/>
<path id="Vector_17" d="M118.488 61.1982C117.333 61.1982 116.368 61.127 115.592 60.9846C114.817 60.8422 114.192 60.6128 113.717 60.2963C113.243 59.9799 112.879 59.5369 112.626 58.9673C112.388 58.3977 112.222 57.6857 112.127 56.8313C112.048 55.9611 112.009 54.9247 112.009 53.7222V44.6798H115.379V54.5766C115.379 55.4152 115.403 56.0955 115.45 56.6177C115.513 57.124 115.632 57.5116 115.806 57.7806C115.996 58.0496 116.304 58.2315 116.732 58.3265C117.159 58.4056 117.744 58.4451 118.488 58.4451C119.232 58.4451 119.809 58.4056 120.22 58.3265C120.648 58.2315 120.956 58.0496 121.146 57.7806C121.336 57.5116 121.455 57.124 121.502 56.6177C121.549 56.0955 121.573 55.4152 121.573 54.5766V44.6798H124.943V53.7222C124.943 54.9247 124.896 55.9611 124.801 56.8313C124.722 57.6857 124.564 58.3977 124.326 58.9673C124.089 59.5369 123.733 59.9799 123.258 60.2963C122.784 60.6128 122.159 60.8422 121.383 60.9846C120.608 61.127 119.643 61.1982 118.488 61.1982Z" fill="#006429"/>
<path id="Vector_18" d="M95 61.0083V44.6798H98.4888L104.921 54.7427H105.039V44.6798H108.267V61.0083H105.063L98.3464 50.3995H98.2277V61.0083H95Z" fill="#006429"/>
</g>
<g id="logo-herbalife">
<path id="leaft3" d="M42.5207 55.9968C42.8375 55.9063 42.7187 55.6316 42.6055 55.4875C42.5509 55.418 41.0116 52.5827 40.2005 51.1585C39.861 50.5624 38.7009 48.0744 37.937 46.5182C37.0598 44.7315 35.1987 40.5547 33.9475 38.3129C31.9103 34.6629 31.1463 33.0784 29.477 30.7866C27.1481 27.5893 25.7421 26.1618 24.2708 24.958C21.7809 22.9208 19.772 21.9483 19.0081 21.5626C16.5748 20.3344 14.1414 19.8535 13.1794 19.6952C10.9442 19.3274 8.05816 19.4337 6.3888 19.582C3.33301 19.8537 0.984581 20.5101 0.192336 20.827C-0.147196 20.9628 0.0414154 21.2407 0.164042 21.3929C0.984592 22.4115 3.58767 27.3347 4.54966 29.7397L8.42599 37.9451C10.6216 42.3137 13.0568 45.7449 14 46.9144C15.4375 48.6969 15.9806 49.9984 20.536 53.3938C21.9507 54.4482 24.5538 55.7705 25.9685 56.1949C29.0809 57.1286 31.0898 57.3833 32.5893 57.3833C34.5417 57.3833 36.5789 57.2089 37.4277 57.072C40.059 56.6476 42.1245 56.11 42.5207 55.9968Z" fill="#006429"/>
<path id="leaf2" d="M46.6606 50.5834C46.8306 50.8658 47.0648 50.6794 47.1744 50.5325C47.2273 50.4616 49.5629 48.236 50.7261 47.0815C51.2131 46.5982 53.3122 44.8293 54.6153 43.6858C56.1113 42.373 59.658 39.4867 61.4958 37.694C64.488 34.7752 65.8183 33.6244 67.5953 31.4149C70.0743 28.3327 71.0857 26.603 71.864 24.8686C73.1811 21.9335 73.5959 19.7404 73.7689 18.9023C74.3199 16.2329 74.1493 13.7584 74.0512 12.7884C73.8232 10.5346 72.9678 7.77619 72.389 6.20333C71.3297 3.3242 70.0833 1.22832 69.5707 0.546177C69.3511 0.25383 69.132 0.508392 69.0171 0.666482C68.2478 1.72434 64.1741 5.52157 62.1033 7.07764L55.1932 12.9602C51.5486 16.2195 48.8715 19.4654 47.9886 20.681C46.6427 22.5337 45.5279 23.3975 43.4385 28.6809C42.7896 30.3217 42.1922 33.1796 42.1515 34.656C42.062 37.9042 42.3402 39.91 42.7314 41.3577C43.2407 43.2424 43.9404 45.1636 44.294 45.9473C45.3902 48.3768 46.448 50.2306 46.6606 50.5834Z" fill="#006429"/>
<path id="leaf1" d="M46.5195 89.1227C46.6896 89.405 46.9238 89.2186 47.0333 89.0718C47.0862 89.0008 49.4218 86.7753 50.5851 85.6207C51.072 85.1375 53.1712 83.3685 54.4742 82.2251C55.9703 80.9122 59.517 78.0259 61.3547 76.2332C64.3469 73.3144 65.6772 72.1636 67.4542 69.9542C69.9333 66.8719 70.9447 65.1422 71.723 63.4078C73.0401 60.4727 73.4549 58.2797 73.6279 57.4416C74.1788 54.7721 74.0083 52.2976 73.9101 51.3276C73.6821 49.0738 72.8267 46.3154 72.248 44.7426C71.1886 41.8634 69.9423 39.7676 69.4297 39.0854C69.21 38.7931 68.991 39.0476 68.876 39.2057C68.1067 40.2636 64.033 44.0608 61.9623 45.6169L55.0522 51.4995C51.4076 54.7587 48.7305 58.0047 47.8475 59.2202C46.5017 61.073 45.3869 61.9368 43.2974 67.2202C42.6485 68.861 42.0511 71.7189 42.0104 73.1953C41.921 76.4435 42.1992 78.4493 42.5904 79.8969C43.0997 81.7816 43.7994 83.7028 44.153 84.4865C45.2491 86.9161 46.3069 88.7698 46.5195 89.1227Z" fill="#006429"/>
</g>
</g>
<g id="Distribuidor Independente">
<path id="Vector_19" d="M280.983 80.5752C280.15 80.5752 279.432 80.4065 278.831 80.069C278.234 79.728 277.773 79.2463 277.45 78.6241C277.126 77.9983 276.964 77.2582 276.964 76.4039C276.964 75.5707 277.126 74.8395 277.45 74.2102C277.773 73.5809 278.228 73.0905 278.815 72.7389C279.406 72.3873 280.099 72.2115 280.893 72.2115C281.428 72.2115 281.925 72.2977 282.386 72.4699C282.85 72.6387 283.254 72.8936 283.598 73.2346C283.947 73.5756 284.217 74.0045 284.411 74.5213C284.604 75.0346 284.701 75.6358 284.701 76.3248V76.9418H277.861V75.5496H282.586C282.586 75.2262 282.516 74.9397 282.375 74.6901C282.234 74.4405 282.039 74.2453 281.79 74.1047C281.544 73.9606 281.257 73.8885 280.93 73.8885C280.589 73.8885 280.287 73.9676 280.023 74.1258C279.763 74.2805 279.559 74.4897 279.411 74.7534C279.264 75.0135 279.188 75.3035 279.185 75.6235V76.9471C279.185 77.3479 279.258 77.6942 279.406 77.986C279.557 78.2778 279.77 78.5028 280.044 78.661C280.318 78.8192 280.644 78.8983 281.02 78.8983C281.269 78.8983 281.498 78.8631 281.705 78.7928C281.913 78.7225 282.09 78.617 282.238 78.4764C282.386 78.3358 282.498 78.1635 282.575 77.9596L284.653 78.0967C284.548 78.5959 284.332 79.0319 284.005 79.4045C283.681 79.7737 283.263 80.062 282.749 80.2694C282.24 80.4733 281.651 80.5752 280.983 80.5752Z" fill="#006429"/>
<path id="Vector_20" d="M275.915 72.317V74.0045H271.037V72.317H275.915ZM272.145 70.3764H274.391V77.928C274.391 78.1354 274.423 78.2971 274.486 78.4131C274.549 78.5256 274.637 78.6047 274.75 78.6504C274.866 78.6961 274.999 78.719 275.15 78.719C275.256 78.719 275.361 78.7102 275.467 78.6926C275.572 78.6715 275.653 78.6557 275.709 78.6451L276.063 80.3168C275.95 80.352 275.792 80.3924 275.588 80.4381C275.384 80.4873 275.136 80.5172 274.845 80.5278C274.303 80.5489 273.829 80.4768 273.421 80.3116C273.016 80.1463 272.702 79.8897 272.477 79.5416C272.252 79.1936 272.141 78.7541 272.145 78.2233V70.3764Z" fill="#006429"/>
<path id="Vector_21" d="M264.615 75.7342V80.417H262.369V72.317H264.51V73.7461H264.605C264.784 73.275 265.085 72.9024 265.507 72.6282C265.928 72.3504 266.44 72.2115 267.041 72.2115C267.604 72.2115 268.094 72.3346 268.512 72.5807C268.931 72.8268 269.256 73.1783 269.488 73.6354C269.72 74.0889 269.836 74.6303 269.836 75.2596V80.417H267.59V75.6604C267.593 75.1647 267.467 74.778 267.21 74.5002C266.953 74.219 266.6 74.0784 266.15 74.0784C265.848 74.0784 265.58 74.1434 265.348 74.2735C265.12 74.4035 264.941 74.5934 264.811 74.843C264.684 75.0891 264.619 75.3862 264.615 75.7342Z" fill="#006429"/>
<path id="Vector_22" d="M257.185 80.5752C256.352 80.5752 255.635 80.4065 255.033 80.069C254.436 79.728 253.975 79.2463 253.652 78.6241C253.328 77.9983 253.167 77.2582 253.167 76.4039C253.167 75.5707 253.328 74.8395 253.652 74.2102C253.975 73.5809 254.431 73.0905 255.018 72.7389C255.608 72.3873 256.301 72.2115 257.095 72.2115C257.63 72.2115 258.127 72.2977 258.588 72.4699C259.052 72.6387 259.456 72.8936 259.801 73.2346C260.149 73.5756 260.419 74.0045 260.613 74.5213C260.806 75.0346 260.903 75.6358 260.903 76.3248V76.9418H254.063V75.5496H258.788C258.788 75.2262 258.718 74.9397 258.577 74.6901C258.437 74.4405 258.242 74.2453 257.992 74.1047C257.746 73.9606 257.459 73.8885 257.132 73.8885C256.791 73.8885 256.489 73.9676 256.225 74.1258C255.965 74.2805 255.761 74.4897 255.614 74.7534C255.466 75.0135 255.39 75.3035 255.387 75.6235V76.9471C255.387 77.3479 255.461 77.6942 255.608 77.986C255.759 78.2778 255.972 78.5028 256.246 78.661C256.521 78.8192 256.846 78.8983 257.222 78.8983C257.472 78.8983 257.7 78.8631 257.908 78.7928C258.115 78.7225 258.292 78.617 258.44 78.4764C258.588 78.3358 258.7 78.1635 258.778 77.9596L260.855 78.0967C260.75 78.5959 260.534 79.0319 260.207 79.4045C259.883 79.7737 259.465 80.062 258.952 80.2694C258.442 80.4733 257.853 80.5752 257.185 80.5752Z" fill="#006429"/>
<path id="Vector_23" d="M247.038 80.5488C246.422 80.5488 245.865 80.3906 245.366 80.0742C244.87 79.7543 244.477 79.285 244.185 78.6662C243.896 78.044 243.752 77.2811 243.752 76.3775C243.752 75.4494 243.902 74.6777 244.201 74.0625C244.499 73.4437 244.897 72.9814 245.392 72.6756C245.892 72.3662 246.438 72.2115 247.032 72.2115C247.486 72.2115 247.864 72.2889 248.166 72.4435C248.472 72.5947 248.718 72.7846 248.904 73.0131C249.094 73.2381 249.238 73.4596 249.337 73.6775H249.405V69.617H251.647V80.417H249.432V79.1197H249.337C249.231 79.3447 249.082 79.568 248.889 79.7895C248.699 80.0074 248.451 80.1885 248.145 80.3326C247.843 80.4768 247.474 80.5488 247.038 80.5488ZM247.75 78.7611C248.112 78.7611 248.418 78.6627 248.667 78.4658C248.92 78.2654 249.114 77.9859 249.247 77.6274C249.384 77.2688 249.453 76.8486 249.453 76.367C249.453 75.8854 249.386 75.467 249.253 75.1119C249.119 74.7568 248.926 74.4826 248.672 74.2893C248.419 74.0959 248.112 73.9992 247.75 73.9992C247.38 73.9992 247.069 74.0994 246.816 74.2998C246.563 74.5002 246.371 74.7779 246.241 75.133C246.111 75.4881 246.046 75.8994 246.046 76.367C246.046 76.8381 246.111 77.2547 246.241 77.6168C246.375 77.9754 246.567 78.2566 246.816 78.4606C247.069 78.6609 247.38 78.7611 247.75 78.7611Z" fill="#006429"/>
<path id="Vector_24" d="M237.062 75.7342V80.417H234.815V72.317H236.956V73.7461H237.051C237.23 73.275 237.531 72.9024 237.953 72.6282C238.375 72.3504 238.886 72.2115 239.487 72.2115C240.05 72.2115 240.54 72.3346 240.959 72.5807C241.377 72.8268 241.702 73.1783 241.934 73.6354C242.166 74.0889 242.282 74.6303 242.282 75.2596V80.417H240.036V75.6604C240.039 75.1647 239.913 74.778 239.656 74.5002C239.399 74.219 239.046 74.0784 238.596 74.0784C238.294 74.0784 238.027 74.1434 237.795 74.2735C237.566 74.4035 237.387 74.5934 237.257 74.843C237.13 75.0891 237.065 75.3862 237.062 75.7342Z" fill="#006429"/>
<path id="Vector_25" d="M229.631 80.5752C228.798 80.5752 228.081 80.4065 227.48 80.069C226.882 79.728 226.421 79.2463 226.098 78.6241C225.775 77.9983 225.613 77.2582 225.613 76.4039C225.613 75.5707 225.775 74.8395 226.098 74.2102C226.421 73.5809 226.877 73.0905 227.464 72.7389C228.054 72.3873 228.747 72.2115 229.542 72.2115C230.076 72.2115 230.573 72.2977 231.034 72.4699C231.498 72.6387 231.902 72.8936 232.247 73.2346C232.595 73.5756 232.866 74.0045 233.059 74.5213C233.252 75.0346 233.349 75.6358 233.349 76.3248V76.9418H226.509V75.5496H231.234C231.234 75.2262 231.164 74.9397 231.023 74.6901C230.883 74.4405 230.688 74.2453 230.438 74.1047C230.192 73.9606 229.905 73.8885 229.579 73.8885C229.238 73.8885 228.935 73.9676 228.671 74.1258C228.411 74.2805 228.207 74.4897 228.06 74.7534C227.912 75.0135 227.837 75.3035 227.833 75.6235V76.9471C227.833 77.3479 227.907 77.6942 228.054 77.986C228.206 78.2778 228.418 78.5028 228.693 78.661C228.967 78.8192 229.292 78.8983 229.668 78.8983C229.918 78.8983 230.146 78.8631 230.354 78.7928C230.561 78.7225 230.739 78.617 230.886 78.4764C231.034 78.3358 231.146 78.1635 231.224 77.9596L233.302 78.0967C233.196 78.5959 232.98 79.0319 232.653 79.4045C232.33 79.7737 231.911 80.062 231.398 80.2694C230.888 80.4733 230.299 80.5752 229.631 80.5752Z" fill="#006429"/>
<path id="Vector_26" d="M216.543 83.4546V72.317H218.757V73.6776H218.858C218.956 73.4596 219.098 73.2381 219.285 73.0131C219.475 72.7846 219.721 72.5948 220.023 72.4436C220.329 72.2889 220.709 72.2115 221.162 72.2115C221.753 72.2115 222.298 72.3662 222.797 72.6756C223.296 72.9815 223.695 73.4438 223.994 74.0625C224.293 74.6778 224.442 75.4494 224.442 76.3776C224.442 77.2811 224.296 78.044 224.005 78.6663C223.716 79.285 223.322 79.7543 222.823 80.0743C222.328 80.3907 221.772 80.5489 221.157 80.5489C220.721 80.5489 220.35 80.4768 220.044 80.3327C219.742 80.1885 219.494 80.0075 219.301 79.7895C219.107 79.568 218.96 79.3448 218.858 79.1198H218.789V83.4546H216.543ZM218.742 76.367C218.742 76.8487 218.808 77.2688 218.942 77.6274C219.076 77.986 219.269 78.2655 219.522 78.4659C219.775 78.6627 220.083 78.7612 220.445 78.7612C220.811 78.7612 221.12 78.661 221.373 78.4606C221.626 78.2567 221.818 77.9754 221.948 77.6168C222.081 77.2547 222.148 76.8381 222.148 76.367C222.148 75.8995 222.083 75.4881 221.953 75.133C221.823 74.778 221.631 74.5002 221.378 74.2998C221.125 74.0994 220.814 73.9992 220.445 73.9992C220.079 73.9992 219.77 74.0959 219.517 74.2893C219.267 74.4826 219.076 74.7569 218.942 75.1119C218.808 75.467 218.742 75.8854 218.742 76.367Z" fill="#006429"/>
<path id="Vector_27" d="M211.359 80.5752C210.526 80.5752 209.808 80.4065 209.207 80.069C208.61 79.728 208.149 79.2463 207.826 78.6241C207.502 77.9983 207.34 77.2582 207.34 76.4039C207.34 75.5707 207.502 74.8395 207.826 74.2102C208.149 73.5809 208.604 73.0905 209.191 72.7389C209.782 72.3873 210.475 72.2115 211.269 72.2115C211.803 72.2115 212.301 72.2977 212.762 72.4699C213.226 72.6387 213.63 72.8936 213.974 73.2346C214.322 73.5756 214.593 74.0045 214.787 74.5213C214.98 75.0346 215.077 75.6358 215.077 76.3248V76.9418H208.237V75.5496H212.962C212.962 75.2262 212.892 74.9397 212.751 74.6901C212.61 74.4405 212.415 74.2453 212.166 74.1047C211.92 73.9606 211.633 73.8885 211.306 73.8885C210.965 73.8885 210.663 73.9676 210.399 74.1258C210.139 74.2805 209.935 74.4897 209.787 74.7534C209.64 75.0135 209.564 75.3035 209.561 75.6235V76.9471C209.561 77.3479 209.634 77.6942 209.782 77.986C209.933 78.2778 210.146 78.5028 210.42 78.661C210.694 78.8192 211.02 78.8983 211.396 78.8983C211.645 78.8983 211.874 78.8631 212.081 78.7928C212.289 78.7225 212.466 78.617 212.614 78.4764C212.761 78.3358 212.874 78.1635 212.951 77.9596L215.029 78.0967C214.924 78.5959 214.707 79.0319 214.38 79.4045C214.057 79.7737 213.639 80.062 213.125 80.2694C212.616 80.4733 212.027 80.5752 211.359 80.5752Z" fill="#006429"/>
<path id="Vector_28" d="M201.211 80.5488C200.596 80.5488 200.039 80.3906 199.54 80.0742C199.044 79.7543 198.65 79.285 198.358 78.6662C198.07 78.044 197.926 77.2811 197.926 76.3775C197.926 75.4494 198.075 74.6777 198.374 74.0625C198.673 73.4437 199.07 72.9814 199.566 72.6756C200.065 72.3662 200.612 72.2115 201.206 72.2115C201.66 72.2115 202.037 72.2889 202.34 72.4435C202.646 72.5947 202.892 72.7846 203.078 73.0131C203.268 73.2381 203.412 73.4596 203.511 73.6775H203.579V69.617H205.82V80.417H203.605V79.1197H203.511C203.405 79.3447 203.256 79.568 203.062 79.7895C202.872 80.0074 202.625 80.1885 202.319 80.3326C202.016 80.4768 201.647 80.5488 201.211 80.5488ZM201.923 78.7611C202.285 78.7611 202.591 78.6627 202.841 78.4658C203.094 78.2654 203.287 77.9859 203.421 77.6274C203.558 77.2688 203.627 76.8486 203.627 76.367C203.627 75.8854 203.56 75.467 203.426 75.1119C203.293 74.7568 203.099 74.4826 202.846 74.2893C202.593 74.0959 202.285 73.9992 201.923 73.9992C201.554 73.9992 201.243 74.0994 200.99 74.2998C200.737 74.5002 200.545 74.7779 200.415 75.133C200.285 75.4881 200.22 75.8994 200.22 76.367C200.22 76.8381 200.285 77.2547 200.415 77.6168C200.549 77.9754 200.74 78.2566 200.99 78.4606C201.243 78.6609 201.554 78.7611 201.923 78.7611Z" fill="#006429"/>
<path id="Vector_29" d="M191.235 75.7342V80.417H188.989V72.317H191.13V73.7461H191.225C191.404 73.275 191.705 72.9024 192.126 72.6282C192.548 72.3504 193.06 72.2115 193.661 72.2115C194.224 72.2115 194.714 72.3346 195.132 72.5807C195.551 72.8268 195.876 73.1783 196.108 73.6354C196.34 74.0889 196.456 74.6303 196.456 75.2596V80.417H194.209V75.6604C194.213 75.1647 194.086 74.778 193.83 74.5002C193.573 74.219 193.22 74.0784 192.77 74.0784C192.467 74.0784 192.2 74.1434 191.968 74.2735C191.74 74.4035 191.56 74.5934 191.43 74.843C191.304 75.0891 191.239 75.3862 191.235 75.7342Z" fill="#006429"/>
<path id="Vector_30" d="M187.152 69.617V80.417H184.869V69.617H187.152Z" fill="#006429"/>
<path id="Vector_31" d="M175.313 80.417V72.317H177.491V73.7303H177.576C177.723 73.2276 177.971 72.8479 178.319 72.5912C178.667 72.3311 179.068 72.201 179.522 72.201C179.634 72.201 179.755 72.208 179.885 72.2221C180.016 72.2361 180.13 72.2555 180.228 72.2801V74.2735C180.123 74.2418 179.977 74.2137 179.791 74.1891C179.604 74.1645 179.434 74.1522 179.279 74.1522C178.949 74.1522 178.653 74.2242 178.393 74.3684C178.136 74.509 177.933 74.7059 177.781 74.959C177.634 75.2121 177.56 75.5039 177.56 75.8344V80.417H175.313Z" fill="#006429"/>
<path id="Vector_32" d="M169.866 80.5752C169.047 80.5752 168.338 80.4012 167.741 80.0532C167.147 79.7016 166.688 79.2129 166.364 78.5872C166.041 77.9579 165.879 77.2284 165.879 76.3987C165.879 75.5619 166.041 74.8307 166.364 74.2049C166.688 73.5756 167.147 73.0869 167.741 72.7389C168.338 72.3873 169.047 72.2115 169.866 72.2115C170.685 72.2115 171.392 72.3873 171.986 72.7389C172.584 73.0869 173.044 73.5756 173.368 74.2049C173.691 74.8307 173.853 75.5619 173.853 76.3987C173.853 77.2284 173.691 77.9579 173.368 78.5872C173.044 79.2129 172.584 79.7016 171.986 80.0532C171.392 80.4012 170.685 80.5752 169.866 80.5752ZM169.876 78.835C170.249 78.835 170.56 78.7295 170.81 78.5186C171.06 78.3041 171.248 78.0123 171.374 77.6432C171.504 77.2741 171.569 76.8539 171.569 76.3829C171.569 75.9118 171.504 75.4916 171.374 75.1225C171.248 74.7534 171.06 74.4616 170.81 74.2471C170.56 74.0326 170.249 73.9254 169.876 73.9254C169.5 73.9254 169.184 74.0326 168.927 74.2471C168.674 74.4616 168.483 74.7534 168.352 75.1225C168.226 75.4916 168.163 75.9118 168.163 76.3829C168.163 76.8539 168.226 77.2741 168.352 77.6432C168.483 78.0123 168.674 78.3041 168.927 78.5186C169.184 78.7295 169.5 78.835 169.876 78.835Z" fill="#006429"/>
<path id="Vector_33" d="M159.75 80.5488C159.135 80.5488 158.578 80.3906 158.078 80.0742C157.583 79.7543 157.189 79.285 156.897 78.6662C156.609 78.044 156.465 77.2811 156.465 76.3775C156.465 75.4494 156.614 74.6777 156.913 74.0625C157.212 73.4437 157.609 72.9814 158.105 72.6756C158.604 72.3662 159.151 72.2115 159.745 72.2115C160.198 72.2115 160.576 72.2889 160.879 72.4435C161.184 72.5947 161.431 72.7846 161.617 73.0131C161.807 73.2381 161.951 73.4596 162.049 73.6775H162.118V69.617H164.359V80.417H162.144V79.1197H162.049C161.944 79.3447 161.794 79.568 161.601 79.7895C161.411 80.0074 161.163 80.1885 160.858 80.3326C160.555 80.4768 160.186 80.5488 159.75 80.5488ZM160.462 78.7611C160.824 78.7611 161.13 78.6627 161.38 78.4658C161.633 78.2654 161.826 77.9859 161.96 77.6274C162.097 77.2688 162.165 76.8486 162.165 76.367C162.165 75.8854 162.099 75.467 161.965 75.1119C161.831 74.7568 161.638 74.4826 161.385 74.2893C161.132 74.0959 160.824 73.9992 160.462 73.9992C160.093 73.9992 159.782 74.0994 159.529 74.2998C159.276 74.5002 159.084 74.7779 158.954 75.133C158.824 75.4881 158.759 75.8994 158.759 76.367C158.759 76.8381 158.824 77.2547 158.954 77.6168C159.087 77.9754 159.279 78.2566 159.529 78.4606C159.782 78.6609 160.093 78.7611 160.462 78.7611Z" fill="#006429"/>
<path id="Vector_34" d="M152.719 80.417V72.317H154.966V80.417H152.719ZM153.848 71.2729C153.514 71.2729 153.227 71.1621 152.988 70.9406C152.753 70.7156 152.635 70.4467 152.635 70.1338C152.635 69.8244 152.753 69.559 152.988 69.3375C153.227 69.1125 153.514 69 153.848 69C154.182 69 154.467 69.1125 154.702 69.3375C154.941 69.559 155.061 69.8244 155.061 70.1338C155.061 70.4467 154.941 70.7156 154.702 70.9406C154.467 71.1621 154.182 71.2729 153.848 71.2729Z" fill="#006429"/>
<path id="Vector_35" d="M148.676 76.9682V72.317H150.922V80.417H148.766V78.9457H148.681C148.498 79.4203 148.194 79.8018 147.769 80.0901C147.347 80.3783 146.832 80.5225 146.224 80.5225C145.682 80.5225 145.206 80.3994 144.795 80.1533C144.383 79.9072 144.062 79.5574 143.83 79.1039C143.601 78.6504 143.485 78.1072 143.482 77.4744V72.317H145.728V77.0736C145.732 77.5518 145.86 77.9297 146.113 78.2074C146.366 78.4852 146.705 78.624 147.131 78.624C147.401 78.624 147.655 78.5625 147.89 78.4395C148.126 78.3129 148.316 78.1266 148.46 77.8805C148.607 77.6344 148.679 77.3303 148.676 76.9682Z" fill="#006429"/>
<path id="Vector_36" d="M134.083 80.417V69.617H136.329V73.6775H136.398C136.496 73.4596 136.639 73.2381 136.825 73.0131C137.015 72.7846 137.261 72.5947 137.563 72.4435C137.869 72.2889 138.249 72.2115 138.702 72.2115C139.293 72.2115 139.838 72.3662 140.337 72.6756C140.836 72.9814 141.235 73.4437 141.534 74.0625C141.833 74.6777 141.983 75.4494 141.983 76.3775C141.983 77.2811 141.837 78.044 141.545 78.6662C141.257 79.285 140.863 79.7543 140.364 80.0742C139.868 80.3906 139.312 80.5488 138.697 80.5488C138.261 80.5488 137.89 80.4768 137.584 80.3326C137.282 80.1885 137.034 80.0074 136.841 79.7895C136.648 79.568 136.5 79.3447 136.398 79.1197H136.298V80.417H134.083ZM136.282 76.367C136.282 76.8486 136.349 77.2688 136.482 77.6274C136.616 77.9859 136.809 78.2654 137.062 78.4658C137.316 78.6627 137.623 78.7611 137.985 78.7611C138.351 78.7611 138.66 78.6609 138.913 78.4606C139.166 78.2566 139.358 77.9754 139.488 77.6168C139.622 77.2547 139.689 76.8381 139.689 76.367C139.689 75.8994 139.624 75.4881 139.493 75.133C139.363 74.7779 139.172 74.5002 138.919 74.2998C138.666 74.0994 138.354 73.9992 137.985 73.9992C137.62 73.9992 137.31 74.0959 137.057 74.2893C136.808 74.4826 136.616 74.7568 136.482 75.1119C136.349 75.467 136.282 75.8854 136.282 76.367Z" fill="#006429"/>
<path id="Vector_37" d="M129.995 80.417V72.317H132.241V80.417H129.995ZM131.123 71.2729C130.789 71.2729 130.503 71.1621 130.264 70.9406C130.028 70.7156 129.91 70.4467 129.91 70.1338C129.91 69.8244 130.028 69.559 130.264 69.3375C130.503 69.1125 130.789 69 131.123 69C131.457 69 131.742 69.1125 131.977 69.3375C132.216 69.559 132.336 69.8244 132.336 70.1338C132.336 70.4467 132.216 70.7156 131.977 70.9406C131.742 71.1621 131.457 71.2729 131.123 71.2729Z" fill="#006429"/>
<path id="Vector_38" d="M123.918 80.417V72.317H126.096V73.7303H126.181C126.328 73.2276 126.576 72.8479 126.924 72.5912C127.272 72.3311 127.673 72.201 128.127 72.201C128.239 72.201 128.36 72.208 128.49 72.2221C128.62 72.2361 128.735 72.2555 128.833 72.2801V74.2735C128.728 74.2418 128.582 74.2137 128.395 74.1891C128.209 74.1645 128.039 74.1522 127.884 74.1522C127.554 74.1522 127.258 74.2242 126.998 74.3684C126.741 74.509 126.537 74.7059 126.386 74.959C126.239 75.2121 126.165 75.5039 126.165 75.8344V80.417H123.918Z" fill="#006429"/>
<path id="Vector_39" d="M122.455 72.317V74.0045H117.577V72.317H122.455ZM118.684 70.3764H120.931V77.928C120.931 78.1354 120.963 78.2971 121.026 78.4131C121.089 78.5256 121.177 78.6047 121.289 78.6504C121.405 78.6961 121.539 78.719 121.69 78.719C121.796 78.719 121.901 78.7102 122.007 78.6926C122.112 78.6715 122.193 78.6557 122.249 78.6451L122.603 80.3168C122.49 80.352 122.332 80.3924 122.128 80.4381C121.924 80.4873 121.676 80.5172 121.384 80.5278C120.843 80.5489 120.368 80.4768 119.961 80.3116C119.556 80.1463 119.242 79.8897 119.017 79.5416C118.792 79.1936 118.681 78.7541 118.684 78.2233V70.3764Z" fill="#006429"/>
<path id="Vector_40" d="M116.547 74.6268L114.491 74.7534C114.456 74.5776 114.38 74.4194 114.264 74.2787C114.148 74.1346 113.995 74.0203 113.805 73.936C113.619 73.8481 113.396 73.8041 113.135 73.8041C112.787 73.8041 112.494 73.878 112.255 74.0256C112.016 74.1698 111.896 74.3631 111.896 74.6057C111.896 74.7991 111.974 74.9625 112.128 75.0961C112.283 75.2297 112.548 75.3369 112.924 75.4178L114.391 75.7131C115.178 75.8748 115.765 76.135 116.152 76.4936C116.539 76.8522 116.732 77.3233 116.732 77.9069C116.732 78.4377 116.575 78.9036 116.263 79.3043C115.953 79.7051 115.528 80.018 114.986 80.243C114.449 80.4645 113.828 80.5752 113.125 80.5752C112.053 80.5752 111.198 80.352 110.562 79.9055C109.929 79.4555 109.558 78.8438 109.449 78.0704L111.659 77.9543C111.726 78.2813 111.887 78.5309 112.144 78.7032C112.401 78.8719 112.729 78.9563 113.13 78.9563C113.524 78.9563 113.84 78.8807 114.079 78.7295C114.322 78.5748 114.445 78.3762 114.449 78.1336C114.445 77.9297 114.359 77.7627 114.19 77.6327C114.021 77.4991 113.761 77.3971 113.41 77.3268L112.007 77.0473C111.216 76.8891 110.627 76.6149 110.24 76.2246C109.857 75.8344 109.665 75.3369 109.665 74.7323C109.665 74.2119 109.806 73.7637 110.087 73.3875C110.372 73.0114 110.771 72.7213 111.284 72.5174C111.801 72.3135 112.406 72.2115 113.099 72.2115C114.122 72.2115 114.927 72.4278 115.514 72.8602C116.104 73.2926 116.449 73.8815 116.547 74.6268Z" fill="#006429"/>
<path id="Vector_41" d="M105.762 80.417V72.317H108.008V80.417H105.762ZM106.89 71.2729C106.556 71.2729 106.27 71.1621 106.031 70.9406C105.795 70.7156 105.677 70.4467 105.677 70.1338C105.677 69.8244 105.795 69.559 106.031 69.3375C106.27 69.1125 106.556 69 106.89 69C107.224 69 107.509 69.1125 107.745 69.3375C107.984 69.559 108.103 69.8244 108.103 70.1338C108.103 70.4467 107.984 70.7156 107.745 70.9406C107.509 71.1621 107.224 71.2729 106.89 71.2729Z" fill="#006429"/>
<path id="Vector_42" d="M98.8285 80.417H95V69.617H98.8602C99.9465 69.617 100.882 69.8332 101.666 70.2656C102.45 70.6945 103.053 71.3115 103.474 72.1166C103.9 72.9217 104.113 73.885 104.113 75.0064C104.113 76.1314 103.9 77.0982 103.474 77.9068C103.053 78.7154 102.446 79.3359 101.655 79.7684C100.868 80.2008 99.9254 80.417 98.8285 80.417ZM97.2834 78.4606H98.7336C99.4086 78.4606 99.9764 78.341 100.437 78.102C100.901 77.8594 101.249 77.485 101.481 76.9787C101.717 76.4689 101.834 75.8115 101.834 75.0064C101.834 74.2084 101.717 73.5562 101.481 73.05C101.249 72.5437 100.903 72.1711 100.442 71.932C99.9817 71.693 99.4139 71.5734 98.7389 71.5734H97.2834V78.4606Z" fill="#006429"/>
</g>
</g>
</svg>
