<svg width="388" height="398" viewBox="0 0 388 398" fill="none" xmlns="http://www.w3.org/2000/svg">
<g id="logo-circ">
<path id="ellipse " d="M342 199.5C342 113.62 272.38 44 186.5 44C100.62 44 31 113.62 31 199.5C31 285.38 100.62 355 186.5 355" stroke="#1A1A1A" stroke-width="2"/>
<g id="name2">
<path id="H" d="M201.131 52.0257L198.852 73.9235L194.313 73.7007L195.244 64.757L186.487 64.3271L185.556 73.2708L181.017 73.048L183.296 51.1502L187.835 51.373L186.891 60.444L195.648 60.874L196.592 51.8029L201.131 52.0257Z" fill="#006429"/>
<path id="E" d="M171.157 51.463L173.57 73.3463L158.718 75.7168L158.312 72.0272L168.676 70.3729L168.09 65.0611L159.211 66.4783L158.804 62.7887L167.683 61.3715L167.077 55.8688L156.712 57.5231L156.305 53.8335L171.157 51.463Z" fill="#006429"/>
<path id="R" d="M145.376 56.2119L152.295 77.1124L142.42 80.7629C141.08 81.2585 139.959 81.5023 139.058 81.4944C138.137 81.4939 137.369 81.2777 136.755 80.8457C136.147 80.434 135.635 79.8389 135.22 79.0603C134.792 78.3094 134.41 77.4276 134.075 76.415C133.84 75.7061 133.649 74.9245 133.501 74.07C133.353 73.2155 133.375 72.3663 133.567 71.5224C133.739 70.6859 134.212 69.9429 134.985 69.2934L128.958 62.2813L133.46 60.6169L139.358 67.8475L138.116 67.6586C138.236 67.5461 138.393 67.4427 138.586 67.3485C138.759 67.2616 138.966 67.1738 139.206 67.0851L143.648 65.4429L141.114 57.7875L145.376 56.2119ZM144.805 68.9364L140.903 70.3789C140.063 70.6896 139.419 70.9843 138.972 71.2631C138.526 71.5419 138.219 71.8371 138.053 72.1486C137.893 72.4804 137.847 72.8498 137.914 73.2568C137.988 73.684 138.129 74.2116 138.337 74.8394C138.545 75.4672 138.746 75.9725 138.94 76.3554C139.134 76.7383 139.378 77.0004 139.672 77.1418C139.966 77.2832 140.38 77.3121 140.913 77.2284C141.427 77.1521 142.104 76.9587 142.945 76.648L146.877 75.1944L144.805 68.9364Z" fill="#006429"/>
<path id="B" d="M118.882 66.9499L130.216 85.8243L121.077 91.4877C119.862 92.2405 118.764 92.6701 117.782 92.7762C116.794 92.9119 115.904 92.7355 115.113 92.247C114.315 91.788 113.603 91.0372 112.977 89.9947C112.461 89.1351 112.139 88.3305 112.013 87.5809C111.886 86.8313 111.948 86.1275 112.2 85.4696C112.452 84.8116 112.9 84.17 113.545 83.5447L113.479 83.435C112.546 83.7873 111.719 83.9231 110.999 83.8424C110.272 83.7912 109.613 83.5222 109.022 83.0352C108.441 82.5665 107.877 81.8749 107.328 80.9605C106.877 80.2106 106.556 79.4686 106.364 78.7344C106.183 78.0185 106.169 77.3118 106.323 76.6145C106.458 75.9283 106.799 75.2528 107.345 74.5881C107.892 73.9233 108.682 73.2707 109.715 72.6302L118.882 66.9499ZM116.898 72.4708L112.872 74.9654C112.146 75.4149 111.614 75.8329 111.273 76.2193C110.944 76.6241 110.811 77.0452 110.875 77.4826C110.931 77.9495 111.152 78.503 111.536 79.1431C111.91 79.7649 112.282 80.199 112.654 80.4454C113.037 80.71 113.481 80.7863 113.986 80.6742C114.473 80.5733 115.079 80.2981 115.804 79.8486L119.83 77.354L116.898 72.4708ZM121.675 80.4266L117.785 82.8369C117.096 83.2639 116.596 83.6742 116.285 84.0677C115.956 84.4724 115.808 84.89 115.843 85.3203C115.87 85.7802 116.049 86.2845 116.378 86.8331C116.762 87.4732 117.135 87.9073 117.496 88.1354C117.85 88.393 118.265 88.4622 118.74 88.343C119.198 88.2351 119.808 87.9451 120.569 87.4732L124.459 85.0629L121.675 80.4266Z" fill="#006429"/>
<path id="A" d="M96.5915 81.504L106.377 102.518L101.946 106.682L81.2936 95.8789L84.675 92.7015L89.2266 95.0987L95.4997 89.2041L93.2801 84.6156L96.5915 81.504ZM97.204 92.6521L92.6333 96.9471L101.308 101.617L101.448 101.486L97.204 92.6521Z" fill="#006429"/>
<path id="L" d="M75.0636 103.554L93.2054 116.027L90.5242 119.696L75.5467 109.398L70.1086 116.839L66.9444 114.663L75.0636 103.554Z" fill="#006429"/>
<path id="I" d="M61.7683 123.854L81.6132 133.388L79.4787 137.399L59.6338 127.866L61.7683 123.854Z" fill="#006429"/>
<path id="F" d="M54.9731 138.093L76.0616 144.416L71.2405 157.985L67.6848 156.919L70.9846 147.631L65.2834 145.922L62.38 154.094L58.8244 153.027L61.7278 144.856L53.4518 142.375L54.9731 138.093Z" fill="#006429"/>
<path id="E_2" d="M47.8592 162.001L69.7694 164.156L67.4806 179.021L63.7864 178.658L65.3837 168.284L60.0654 167.761L58.697 176.648L55.0028 176.285L56.3712 167.398L50.8618 166.856L49.2645 177.229L45.5704 176.866L47.8592 162.001Z" fill="#006429"/>
</g>
<g id="name1">
<path id="H_2" d="M206.361 358.69L201.438 337.231L205.867 336.215L207.877 344.979L216.423 343.019L214.413 334.254L218.842 333.238L223.765 354.697L219.336 355.713L217.296 346.824L208.75 348.785L210.79 357.674L206.361 358.69Z" fill="#006429"/>
<path id="E_3" d="M234.542 351.231L226.344 330.799L240.302 325.198L241.684 328.643L231.943 332.551L233.933 337.511L242.278 334.162L243.661 337.607L235.315 340.956L237.377 346.094L247.118 342.185L248.5 345.63L234.542 351.231Z" fill="#006429"/>
<path id="R_2" d="M257.617 341.21L246.451 322.235L255.525 316.896C256.757 316.171 257.821 315.73 258.719 315.573C259.635 315.406 260.443 315.475 261.143 315.781C261.832 316.068 262.463 316.551 263.035 317.229C263.615 317.878 264.175 318.662 264.716 319.582C265.095 320.225 265.446 320.947 265.768 321.747C266.091 322.548 266.243 323.374 266.224 324.227C266.225 325.068 265.907 325.874 265.271 326.644L272.702 332.333L268.566 334.767L261.218 328.843L262.492 328.799C262.396 328.93 262.261 329.059 262.088 329.185C261.933 329.301 261.746 329.424 261.525 329.554L257.443 331.956L261.533 338.906L257.617 341.21ZM255.577 328.784L259.162 326.674C259.934 326.22 260.514 325.817 260.901 325.465C261.288 325.114 261.533 324.772 261.634 324.44C261.725 324.089 261.695 323.723 261.545 323.341C261.384 322.941 261.136 322.456 260.8 321.886C260.465 321.316 260.161 320.864 259.89 320.528C259.618 320.193 259.322 319.984 259.001 319.9C258.679 319.817 258.262 319.865 257.748 320.043C257.253 320.211 256.619 320.522 255.847 320.977L252.234 323.103L255.577 328.784Z" fill="#006429"/>
<path id="B_2" d="M280.602 326.742L266.623 309.733L274.929 302.906C276.033 301.999 277.067 301.425 278.03 301.186C278.996 300.917 279.908 300.968 280.766 301.34C281.627 301.681 282.443 302.322 283.215 303.261C283.852 304.036 284.287 304.783 284.52 305.503C284.752 306.223 284.79 306.924 284.632 307.606C284.475 308.288 284.119 308.981 283.565 309.684L283.646 309.783C284.527 309.308 285.331 309.061 286.061 309.042C286.793 308.992 287.488 309.166 288.147 309.564C288.792 309.945 289.453 310.548 290.13 311.372C290.685 312.048 291.111 312.733 291.407 313.429C291.689 314.109 291.803 314.802 291.749 315.509C291.711 316.202 291.468 316.914 291.017 317.643C290.567 318.372 289.872 319.122 288.933 319.894L280.602 326.742ZM281.796 321.038L285.455 318.031C286.114 317.489 286.586 317.005 286.87 316.578C287.141 316.134 287.213 315.702 287.088 315.281C286.965 314.829 286.667 314.315 286.193 313.738C285.732 313.178 285.299 312.802 284.893 312.611C284.474 312.403 284.021 312.389 283.533 312.569C283.062 312.735 282.497 313.089 281.838 313.631L278.179 316.638L281.796 321.038ZM275.904 313.869L279.439 310.963C280.065 310.449 280.505 309.976 280.76 309.546C281.03 309.103 281.118 308.672 281.022 308.253C280.93 307.805 280.68 307.333 280.274 306.839C279.8 306.262 279.367 305.886 278.975 305.712C278.585 305.507 278.162 305.496 277.705 305.678C277.264 305.847 276.697 306.216 276.005 306.785L272.47 309.691L275.904 313.869Z" fill="#006429"/>
<path id="A_2" d="M299.634 310.478L288.135 290.277L292.175 285.734L313.583 294.791L310.499 298.258L305.78 296.246L300.06 302.679L302.653 307.083L299.634 310.478ZM298.076 299.373L302.243 294.686L293.24 290.749L293.113 290.892L298.076 299.373Z" fill="#006429"/>
<path id="L_2" d="M318.412 288.011L300.024 275.904L302.523 272.109L317.704 282.104L322.772 274.407L325.979 276.519L318.412 288.011Z" fill="#006429"/>
<path id="I_2" d="M330.45 268.296L310.845 258.278L312.913 254.231L332.517 264.25L330.45 268.296Z" fill="#006429"/>
<path id="F_2" d="M337.033 254.687L316.426 246.937L321.496 233.458L324.97 234.765L321.5 243.99L327.072 246.086L330.124 237.969L333.599 239.275L330.546 247.392L338.633 250.434L337.033 254.687Z" fill="#006429"/>
<path id="E_4" d="M344.873 231.852L323.378 227.088L326.633 212.404L330.257 213.207L327.986 223.455L333.203 224.611L335.149 215.832L338.773 216.635L336.827 225.414L342.232 226.612L344.503 216.365L348.127 217.168L344.873 231.852Z" fill="#006429"/>
</g>
<g id="logo-herbalife">
<path id="leaft3" d="M183.153 225.091C183.81 224.903 183.563 224.334 183.329 224.035C183.215 223.891 180.024 218.013 178.343 215.06C177.639 213.824 175.234 208.667 173.65 205.44C171.831 201.736 167.973 193.077 165.379 188.429C161.155 180.862 159.572 177.577 156.111 172.826C151.283 166.197 148.368 163.238 145.318 160.742C140.156 156.519 135.991 154.503 134.407 153.703C129.362 151.157 124.318 150.16 122.323 149.832C117.689 149.069 111.706 149.289 108.245 149.597C101.91 150.16 97.0412 151.521 95.3987 152.178C94.6948 152.46 95.0859 153.036 95.3401 153.351C97.0412 155.463 102.438 165.67 104.432 170.656L112.469 187.667C117.02 196.724 122.069 203.837 124.024 206.262C127.005 209.957 128.13 212.655 137.575 219.694C140.508 221.881 145.904 224.622 148.837 225.502C155.29 227.437 159.454 227.965 162.563 227.965C166.611 227.965 170.834 227.604 172.594 227.32C178.049 226.44 182.331 225.326 183.153 225.091Z" fill="#006429"/>
<path id="leaf2" d="M191.735 213.868C192.088 214.453 192.573 214.067 192.801 213.763C192.91 213.615 197.752 209.002 200.164 206.608C201.173 205.606 205.525 201.939 208.227 199.568C211.328 196.846 218.681 190.863 222.491 187.146C228.695 181.095 231.453 178.709 235.137 174.129C240.276 167.738 242.373 164.152 243.986 160.557C246.717 154.472 247.577 149.925 247.936 148.188C249.078 142.653 248.724 137.523 248.521 135.512C248.048 130.84 246.275 125.121 245.075 121.861C242.879 115.892 240.295 111.547 239.232 110.132C238.777 109.526 238.323 110.054 238.084 110.382C236.489 112.575 228.044 120.447 223.751 123.673L209.425 135.869C201.869 142.626 196.319 149.355 194.488 151.875C191.698 155.716 189.387 157.507 185.055 168.46C183.71 171.862 182.472 177.787 182.387 180.848C182.202 187.582 182.779 191.74 183.59 194.741C184.645 198.649 186.096 202.632 186.829 204.257C189.102 209.293 191.295 213.137 191.735 213.868Z" fill="#006429"/>
<path id="leaf1" d="M191.443 293.767C191.795 294.352 192.281 293.965 192.508 293.661C192.618 293.514 197.46 288.9 199.871 286.506C200.881 285.504 205.233 281.837 207.934 279.467C211.036 276.745 218.389 270.761 222.199 267.045C228.402 260.993 231.16 258.607 234.844 254.027C239.984 247.637 242.08 244.051 243.694 240.455C246.424 234.37 247.284 229.824 247.643 228.086C248.785 222.552 248.432 217.422 248.228 215.411C247.756 210.738 245.982 205.02 244.782 201.759C242.586 195.79 240.002 191.445 238.94 190.031C238.484 189.425 238.03 189.952 237.792 190.28C236.197 192.473 227.751 200.346 223.458 203.572L209.133 215.767C201.577 222.524 196.027 229.254 194.196 231.774C191.406 235.615 189.095 237.406 184.763 248.359C183.418 251.761 182.179 257.685 182.095 260.746C181.909 267.48 182.486 271.639 183.297 274.64C184.353 278.547 185.804 282.53 186.537 284.155C188.809 289.192 191.002 293.035 191.443 293.767Z" fill="#006429"/>
</g>
</g>
</svg>
